<svg width="73" height="58" viewBox="0 0 73 58" fill="none" xmlns="http://www.w3.org/2000/svg">
<!-- <rect width="73" height="58" fill="#F5F5F5"/> -->
<g id="Group 3441">
<g id="Group 1174">
<rect id="Rectangle 831" x="20.9448" y="29.8716" width="0.861789" height="0.861789" transform="rotate(45 20.9448 29.8716)" fill="#00FFF0"/>
<rect id="Rectangle 832" width="0.400486" height="0.400486" transform="matrix(-0.707107 -0.707107 -0.707107 0.707107 36.7153 30.481)" fill="#00FFF0"/>
<rect id="Rectangle 833" x="30.0961" y="38.0735" width="0.426152" height="0.426152" transform="rotate(45 30.0961 38.0735)" fill="#00FFF0"/>
<rect id="Rectangle 835" width="0.426152" height="0.426152" transform="matrix(0.707131 0.707082 -0.707131 0.707082 7.01672 20.3628)" fill="#00FFF0"/>
<rect id="Rectangle 836" width="0.426152" height="0.426152" transform="matrix(0.707131 0.707082 -0.707131 0.707082 9.29321 6)" fill="#00FFF0" fill-opacity="0.5"/>
<rect id="Rectangle 837" x="15.8109" y="14.384" width="0.297837" height="0.297837" transform="rotate(45 15.8109 14.384)" fill="#00FFF0" fill-opacity="0.5"/>
<rect id="Rectangle 838" x="12.1777" y="12.895" width="0.555668" height="0.555668" transform="rotate(45 12.1777 12.895)" fill="#00FFF0" fill-opacity="0.5"/>
</g>
<g id="Group 1175">
<rect id="Rectangle 831_2" x="42.6754" y="44.8716" width="0.861789" height="0.861789" transform="rotate(45 42.6754 44.8716)" fill="#00FFF0"/>
<rect id="Rectangle 832_2" width="0.400486" height="0.400486" transform="matrix(-0.707107 -0.707107 -0.707107 0.707107 58.4459 45.481)" fill="#00FFF0"/>
<rect id="Rectangle 833_2" x="51.8267" y="53.0735" width="0.426152" height="0.426152" transform="rotate(45 51.8267 53.0735)" fill="#00FFF0"/>
<rect id="Rectangle 835_2" width="0.426152" height="0.426152" transform="matrix(0.707131 0.707082 -0.707131 0.707082 28.7473 35.3628)" fill="#00FFF0"/>
<rect id="Rectangle 836_2" width="0.426152" height="0.426152" transform="matrix(0.707131 0.707082 -0.707131 0.707082 31.0239 21)" fill="#00FFF0" fill-opacity="0.5"/>
<rect id="Rectangle 837_2" x="37.5415" y="29.384" width="0.297837" height="0.297837" transform="rotate(45 37.5415 29.384)" fill="#00FFF0" fill-opacity="0.5"/>
<rect id="Rectangle 838_2" x="33.9083" y="27.895" width="0.555668" height="0.555668" transform="rotate(45 33.9083 27.895)" fill="#00FFF0" fill-opacity="0.5"/>
</g>
<g id="Group 1176">
<rect id="Rectangle 831_3" x="53.7296" y="31.8716" width="0.861789" height="0.861789" transform="rotate(45 53.7296 31.8716)" fill="#00FFF0"/>
<rect id="Rectangle 832_3" width="0.400486" height="0.400486" transform="matrix(-0.707107 -0.707107 -0.707107 0.707107 69.5001 32.481)" fill="#00FFF0"/>
<rect id="Rectangle 833_3" x="62.8809" y="40.0735" width="0.426152" height="0.426152" transform="rotate(45 62.8809 40.0735)" fill="#00FFF0"/>
<rect id="Rectangle 835_3" width="0.426152" height="0.426152" transform="matrix(0.707131 0.707082 -0.707131 0.707082 39.8015 22.3628)" fill="#00FFF0"/>
<rect id="Rectangle 836_3" width="0.426152" height="0.426152" transform="matrix(0.707131 0.707082 -0.707131 0.707082 42.0781 8)" fill="#00FFF0" fill-opacity="0.5"/>
<rect id="Rectangle 837_3" x="48.5957" y="16.384" width="0.297837" height="0.297837" transform="rotate(45 48.5957 16.384)" fill="#00FFF0" fill-opacity="0.5"/>
<rect id="Rectangle 838_3" x="44.9625" y="14.895" width="0.555668" height="0.555668" transform="rotate(45 44.9625 14.895)" fill="#00FFF0" fill-opacity="0.5"/>
</g>
<g id="Group 1177">
<rect id="Rectangle 831_4" x="56.7296" y="23.8716" width="0.861789" height="0.861789" transform="rotate(45 56.7296 23.8716)" fill="#00FFF0"/>
<rect id="Rectangle 832_4" width="0.400486" height="0.400486" transform="matrix(-0.707107 -0.707107 -0.707107 0.707107 72.5001 24.481)" fill="#00FFF0"/>
<rect id="Rectangle 833_4" x="65.8809" y="32.0735" width="0.426152" height="0.426152" transform="rotate(45 65.8809 32.0735)" fill="#00FFF0"/>
<rect id="Rectangle 835_4" width="0.426152" height="0.426152" transform="matrix(0.707131 0.707082 -0.707131 0.707082 42.8015 14.3628)" fill="#00FFF0"/>
<rect id="Rectangle 836_4" width="0.426152" height="0.426152" transform="matrix(0.707131 0.707082 -0.707131 0.707082 45.0781 0)" fill="#00FFF0" fill-opacity="0.5"/>
<rect id="Rectangle 837_4" x="51.5957" y="8.38403" width="0.297837" height="0.297837" transform="rotate(45 51.5957 8.38403)" fill="#00FFF0" fill-opacity="0.5"/>
<rect id="Rectangle 838_4" x="47.9625" y="6.89502" width="0.555668" height="0.555668" transform="rotate(45 47.9625 6.89502)" fill="#00FFF0" fill-opacity="0.5"/>
</g>
<g id="Group 1178">
<rect id="Rectangle 831_5" x="14.2295" y="48.8716" width="0.861789" height="0.861789" transform="rotate(45 14.2295 48.8716)" fill="#00FFF0"/>
<rect id="Rectangle 832_5" width="0.400486" height="0.400486" transform="matrix(-0.707107 -0.707107 -0.707107 0.707107 30 49.481)" fill="#00FFF0"/>
<rect id="Rectangle 833_5" x="23.3807" y="57.0735" width="0.426152" height="0.426152" transform="rotate(45 23.3807 57.0735)" fill="#00FFF0"/>
<rect id="Rectangle 835_5" width="0.426152" height="0.426152" transform="matrix(0.707131 0.707082 -0.707131 0.707082 0.301392 39.3628)" fill="#00FFF0"/>
<rect id="Rectangle 836_5" width="0.426152" height="0.426152" transform="matrix(0.707131 0.707082 -0.707131 0.707082 2.57788 25)" fill="#00FFF0" fill-opacity="0.5"/>
<rect id="Rectangle 837_5" x="9.09558" y="33.384" width="0.297837" height="0.297837" transform="rotate(45 9.09558 33.384)" fill="#00FFF0" fill-opacity="0.5"/>
<rect id="Rectangle 838_5" x="5.4624" y="31.895" width="0.555668" height="0.555668" transform="rotate(45 5.4624 31.895)" fill="#00FFF0" fill-opacity="0.5"/>
</g>
<g id="Group 1173">
<circle id="Ellipse 339" cx="36.3848" cy="29" r="23" fill="url(#paint0_radial_103_97)" fill-opacity="0.6"/>
<g id="Ellipse 336" filter="url(#filter0_d_103_97)">
<ellipse cx="33.5568" cy="35.3848" rx="14.4523" ry="9.054" fill="url(#paint1_linear_103_97)" fill-opacity="0.5" shape-rendering="crispEdges"/>
<path d="M47.4916 35.3848C47.4916 37.6427 46.0293 39.7647 43.5014 41.3483C40.9806 42.9275 37.466 43.9212 33.5568 43.9212C29.6476 43.9212 26.1331 42.9275 23.6123 41.3483C21.0843 39.7647 19.6221 37.6427 19.6221 35.3848C19.6221 33.1269 21.0843 31.005 23.6123 29.4213C26.1331 27.8421 29.6476 26.8484 33.5568 26.8484C37.466 26.8484 40.9806 27.8421 43.5014 29.4213C46.0293 31.005 47.4916 33.1269 47.4916 35.3848Z" stroke="url(#paint2_linear_103_97)" stroke-opacity="0.6" stroke-width="1.03515" shape-rendering="crispEdges"/>
</g>
<circle id="Ellipse 330" cx="33.5569" cy="26.9423" r="18.3351" fill="url(#paint3_radial_103_97)"/>
<g id="Ellipse 337" filter="url(#filter1_d_103_97)">
<ellipse cx="33.5569" cy="29.9737" rx="17.9256" ry="10.4868" fill="url(#paint4_linear_103_97)" fill-opacity="0.5" shape-rendering="crispEdges"/>
<path d="M50.9649 29.9737C50.9649 32.6098 49.1348 35.0912 45.9708 36.9422C42.8193 38.7859 38.4315 39.9429 33.5569 39.9429C28.6823 39.9429 24.2944 38.7859 21.1429 36.9422C17.9789 35.0912 16.1488 32.6098 16.1488 29.9737C16.1488 27.3376 17.9789 24.8561 21.1429 23.0051C24.2944 21.1614 28.6823 20.0044 33.5569 20.0044C38.4315 20.0044 42.8193 21.1614 45.9708 23.0051C49.1348 24.8561 50.9649 27.3376 50.9649 29.9737Z" stroke="url(#paint5_linear_103_97)" stroke-opacity="0.6" stroke-width="1.03515" shape-rendering="crispEdges"/>
</g>
<g id="Ellipse 331">
<circle cx="33.5574" cy="26.9423" r="13.5812" fill="url(#paint6_radial_103_97)"/>
<circle cx="33.5574" cy="26.9423" r="13.5812" fill="url(#paint7_radial_103_97)"/>
</g>
<g id="Ellipse 335" filter="url(#filter2_d_103_97)">
<ellipse cx="33.5574" cy="23.4633" rx="17.7433" ry="10.2443" fill="url(#paint8_linear_103_97)" fill-opacity="0.5" shape-rendering="crispEdges"/>
<path d="M50.7831 23.4633C50.7831 26.029 48.9777 28.4502 45.845 30.2589C42.726 32.0597 38.3828 33.1901 33.5574 33.1901C28.732 33.1901 24.3888 32.0597 21.2698 30.2589C18.1371 28.4502 16.3317 26.029 16.3317 23.4633C16.3317 20.8976 18.1371 18.4764 21.2698 16.6677C24.3888 14.8669 28.732 13.7366 33.5574 13.7366C38.3828 13.7366 42.726 14.8669 45.845 16.6677C48.9777 18.4764 50.7831 20.8976 50.7831 23.4633Z" stroke="url(#paint9_linear_103_97)" stroke-opacity="0.6" stroke-width="1.03515" shape-rendering="crispEdges"/>
</g>
<g id="Ellipse 334" filter="url(#filter3_d_103_97)">
<ellipse cx="33.5567" cy="18.1734" rx="13.7683" ry="8.89946" fill="url(#paint10_linear_103_97)" fill-opacity="0.5" shape-rendering="crispEdges"/>
<path d="M46.8075 18.1734C46.8075 20.3964 45.4128 22.4794 43.0114 24.0316C40.6153 25.5804 37.274 26.5553 33.5567 26.5553C29.8395 26.5553 26.4982 25.5804 24.1021 24.0316C21.7007 22.4794 20.306 20.3964 20.306 18.1734C20.306 15.9503 21.7007 13.8674 24.1021 12.3152C26.4982 10.7664 29.8395 9.7915 33.5567 9.7915C37.274 9.7915 40.6153 10.7664 43.0114 12.3152C45.4128 13.8674 46.8075 15.9503 46.8075 18.1734Z" stroke="url(#paint11_linear_103_97)" stroke-opacity="0.6" stroke-width="1.03515" shape-rendering="crispEdges"/>
</g>
<g id="Ellipse 333" filter="url(#filter4_d_103_97)">
<ellipse cx="33.5573" cy="15.0823" rx="8.56973" ry="5.8084" fill="url(#paint12_linear_103_97)" fill-opacity="0.5" shape-rendering="crispEdges"/>
<path d="M41.6094 15.0823C41.6094 16.4634 40.7838 17.7734 39.3266 18.761C37.8723 19.7468 35.8341 20.3732 33.5573 20.3732C31.2805 20.3732 29.2423 19.7468 27.788 18.761C26.3308 17.7734 25.5051 16.4634 25.5051 15.0823C25.5051 13.7013 26.3308 12.3913 27.788 11.4036C29.2423 10.4179 31.2805 9.7915 33.5573 9.7915C35.8341 9.7915 37.8723 10.4179 39.3266 11.4036C40.7838 12.3913 41.6094 13.7013 41.6094 15.0823Z" stroke="url(#paint13_linear_103_97)" stroke-opacity="0.6" stroke-width="1.03515" shape-rendering="crispEdges"/>
</g>
<circle id="Ellipse 338" cx="33.5569" cy="26.9423" r="18.3351" fill="url(#paint14_radial_103_97)" fill-opacity="0.9"/>
</g>
</g>
<defs>
<filter id="filter0_d_103_97" x="12.376" y="19.6023" width="44.432" height="33.6352" filterUnits="userSpaceOnUse" color-interpolation-filters="sRGB">
<feFlood flood-opacity="0" result="BackgroundImageFix"/>
<feColorMatrix in="SourceAlpha" type="matrix" values="0 0 0 0 0 0 0 0 0 0 0 0 0 0 0 0 0 0 127 0" result="hardAlpha"/>
<feOffset dx="1.03515" dy="1.03515"/>
<feGaussianBlur stdDeviation="3.88183"/>
<feComposite in2="hardAlpha" operator="out"/>
<feColorMatrix type="matrix" values="0 0 0 0 0.440043 0 0 0 0 0.20092 0 0 0 0 0.679167 0 0 0 0.2 0"/>
<feBlend mode="normal" in2="BackgroundImageFix" result="effect1_dropShadow_103_97"/>
<feBlend mode="normal" in="SourceGraphic" in2="effect1_dropShadow_103_97" result="shape"/>
</filter>
<filter id="filter1_d_103_97" x="8.90272" y="12.7583" width="51.3786" height="36.501" filterUnits="userSpaceOnUse" color-interpolation-filters="sRGB">
<feFlood flood-opacity="0" result="BackgroundImageFix"/>
<feColorMatrix in="SourceAlpha" type="matrix" values="0 0 0 0 0 0 0 0 0 0 0 0 0 0 0 0 0 0 127 0" result="hardAlpha"/>
<feOffset dx="1.03515" dy="1.03515"/>
<feGaussianBlur stdDeviation="3.88183"/>
<feComposite in2="hardAlpha" operator="out"/>
<feColorMatrix type="matrix" values="0 0 0 0 0.440043 0 0 0 0 0.20092 0 0 0 0 0.679167 0 0 0 0.2 0"/>
<feBlend mode="normal" in2="BackgroundImageFix" result="effect1_dropShadow_103_97"/>
<feBlend mode="normal" in="SourceGraphic" in2="effect1_dropShadow_103_97" result="shape"/>
</filter>
<filter id="filter2_d_103_97" x="9.08558" y="6.49049" width="51.0139" height="36.0158" filterUnits="userSpaceOnUse" color-interpolation-filters="sRGB">
<feFlood flood-opacity="0" result="BackgroundImageFix"/>
<feColorMatrix in="SourceAlpha" type="matrix" values="0 0 0 0 0 0 0 0 0 0 0 0 0 0 0 0 0 0 127 0" result="hardAlpha"/>
<feOffset dx="1.03515" dy="1.03515"/>
<feGaussianBlur stdDeviation="3.88183"/>
<feComposite in2="hardAlpha" operator="out"/>
<feColorMatrix type="matrix" values="0 0 0 0 0.440043 0 0 0 0 0.20092 0 0 0 0 0.679167 0 0 0 0.2 0"/>
<feBlend mode="normal" in2="BackgroundImageFix" result="effect1_dropShadow_103_97"/>
<feBlend mode="normal" in="SourceGraphic" in2="effect1_dropShadow_103_97" result="shape"/>
</filter>
<filter id="filter3_d_103_97" x="13.0599" y="2.54542" width="43.0639" height="33.3261" filterUnits="userSpaceOnUse" color-interpolation-filters="sRGB">
<feFlood flood-opacity="0" result="BackgroundImageFix"/>
<feColorMatrix in="SourceAlpha" type="matrix" values="0 0 0 0 0 0 0 0 0 0 0 0 0 0 0 0 0 0 127 0" result="hardAlpha"/>
<feOffset dx="1.03515" dy="1.03515"/>
<feGaussianBlur stdDeviation="3.88183"/>
<feComposite in2="hardAlpha" operator="out"/>
<feColorMatrix type="matrix" values="0 0 0 0 0.440043 0 0 0 0 0.20092 0 0 0 0 0.679167 0 0 0 0.2 0"/>
<feBlend mode="normal" in2="BackgroundImageFix" result="effect1_dropShadow_103_97"/>
<feBlend mode="normal" in="SourceGraphic" in2="effect1_dropShadow_103_97" result="shape"/>
</filter>
<filter id="filter4_d_103_97" x="18.259" y="2.54542" width="32.6667" height="27.144" filterUnits="userSpaceOnUse" color-interpolation-filters="sRGB">
<feFlood flood-opacity="0" result="BackgroundImageFix"/>
<feColorMatrix in="SourceAlpha" type="matrix" values="0 0 0 0 0 0 0 0 0 0 0 0 0 0 0 0 0 0 127 0" result="hardAlpha"/>
<feOffset dx="1.03515" dy="1.03515"/>
<feGaussianBlur stdDeviation="3.88183"/>
<feComposite in2="hardAlpha" operator="out"/>
<feColorMatrix type="matrix" values="0 0 0 0 0.440043 0 0 0 0 0.20092 0 0 0 0 0.679167 0 0 0 0.2 0"/>
<feBlend mode="normal" in2="BackgroundImageFix" result="effect1_dropShadow_103_97"/>
<feBlend mode="normal" in="SourceGraphic" in2="effect1_dropShadow_103_97" result="shape"/>
</filter>
<radialGradient id="paint0_radial_103_97" cx="0" cy="0" r="1" gradientUnits="userSpaceOnUse" gradientTransform="translate(36.3848 29) rotate(90) scale(23)">
<stop stop-color="#FF65C1"/>
<stop offset="1" stop-color="#FF65C1" stop-opacity="0"/>
</radialGradient>
<linearGradient id="paint1_linear_103_97" x1="48.0092" y1="33.4251" x2="19.1136" y2="35.5106" gradientUnits="userSpaceOnUse">
<stop stop-color="#4E53BE" stop-opacity="0.5"/>
<stop offset="0.885417" stop-color="#FB33FF" stop-opacity="0.5"/>
<stop offset="1" stop-color="white" stop-opacity="0.5"/>
</linearGradient>
<linearGradient id="paint2_linear_103_97" x1="36.0828" y1="48.3701" x2="37.8845" y2="28.3362" gradientUnits="userSpaceOnUse">
<stop stop-color="white"/>
<stop offset="1" stop-color="white" stop-opacity="0"/>
</linearGradient>
<radialGradient id="paint3_radial_103_97" cx="0" cy="0" r="1" gradientUnits="userSpaceOnUse" gradientTransform="translate(15.2218 33.6121) rotate(-19.6638) scale(38.9411)">
<stop offset="0.249306" stop-color="white"/>
<stop offset="0.48315" stop-color="#FF8FED" stop-opacity="0.5"/>
<stop offset="0.627037" stop-color="#220C7A" stop-opacity="0.5"/>
</radialGradient>
<linearGradient id="paint4_linear_103_97" x1="51.4825" y1="27.7038" x2="15.6697" y2="30.4717" gradientUnits="userSpaceOnUse">
<stop stop-color="#4E53BE" stop-opacity="0.5"/>
<stop offset="0.885417" stop-color="#FB33FF" stop-opacity="0.5"/>
<stop offset="1" stop-color="white" stop-opacity="0.5"/>
</linearGradient>
<linearGradient id="paint5_linear_103_97" x1="36.6899" y1="45.014" x2="38.6406" y2="21.7857" gradientUnits="userSpaceOnUse">
<stop stop-color="white"/>
<stop offset="1" stop-color="white" stop-opacity="0"/>
</linearGradient>
<radialGradient id="paint6_radial_103_97" cx="0" cy="0" r="1" gradientUnits="userSpaceOnUse" gradientTransform="translate(37.9219 40.5234) rotate(-107.749) scale(27.2809)">
<stop offset="0.223958" stop-color="white"/>
<stop offset="0.466382" stop-color="#FFCEF1"/>
<stop offset="0.682292" stop-color="#B6B9FF"/>
<stop offset="0.881791" stop-color="white"/>
</radialGradient>
<radialGradient id="paint7_radial_103_97" cx="0" cy="0" r="1" gradientUnits="userSpaceOnUse" gradientTransform="translate(40.2676 40.5234) rotate(-100.377) scale(37.2538)">
<stop stop-color="white"/>
<stop offset="1" stop-color="white" stop-opacity="0"/>
</radialGradient>
<linearGradient id="paint8_linear_103_97" x1="51.3006" y1="21.246" x2="15.8578" y2="24.0216" gradientUnits="userSpaceOnUse">
<stop stop-color="#4E53BE" stop-opacity="0.5"/>
<stop offset="0.885417" stop-color="#FB33FF" stop-opacity="0.5"/>
<stop offset="1" stop-color="white" stop-opacity="0.5"/>
</linearGradient>
<linearGradient id="paint9_linear_103_97" x1="36.6586" y1="38.1558" x2="38.5396" y2="15.4606" gradientUnits="userSpaceOnUse">
<stop stop-color="white"/>
<stop offset="1" stop-color="white" stop-opacity="0"/>
</linearGradient>
<linearGradient id="paint10_linear_103_97" x1="47.325" y1="16.2471" x2="19.7885" y2="18.1734" gradientUnits="userSpaceOnUse">
<stop stop-color="#4E53BE" stop-opacity="0.5"/>
<stop offset="0.885417" stop-color="#FB33FF" stop-opacity="0.5"/>
<stop offset="1" stop-color="white" stop-opacity="0.5"/>
</linearGradient>
<linearGradient id="paint11_linear_103_97" x1="35.9632" y1="30.9371" x2="37.7894" y2="11.2553" gradientUnits="userSpaceOnUse">
<stop stop-color="white"/>
<stop offset="1" stop-color="white" stop-opacity="0"/>
</linearGradient>
<linearGradient id="paint12_linear_103_97" x1="42.127" y1="13.8251" x2="24.98" y2="14.969" gradientUnits="userSpaceOnUse">
<stop stop-color="#4E53BE" stop-opacity="0.5"/>
<stop offset="0.885417" stop-color="#FB33FF" stop-opacity="0.5"/>
<stop offset="1" stop-color="white" stop-opacity="0.5"/>
</linearGradient>
<linearGradient id="paint13_linear_103_97" x1="35.0551" y1="23.4128" x2="36.3039" y2="10.578" gradientUnits="userSpaceOnUse">
<stop stop-color="white"/>
<stop offset="1" stop-color="white" stop-opacity="0"/>
</linearGradient>
<radialGradient id="paint14_radial_103_97" cx="0" cy="0" r="1" gradientUnits="userSpaceOnUse" gradientTransform="translate(26.1931 47.5935) rotate(-65.1363) scale(57.8164)">
<stop offset="0.249306" stop-color="white"/>
<stop offset="0.48315" stop-color="#FF8FED" stop-opacity="0.5"/>
<stop offset="0.627037" stop-color="#220C7A" stop-opacity="0"/>
</radialGradient>
</defs>
</svg>
